<?xml version="1.0" standalone="no"?>
<!DOCTYPE svg PUBLIC "-//W3C//DTD SVG 20010904//EN"
 "http://www.w3.org/TR/2001/REC-SVG-20010904/DTD/svg10.dtd">
<svg version="1.0" xmlns="http://www.w3.org/2000/svg"
 width="1920.000000pt" height="960.000000pt" viewBox="0 0 1920.000000 960.000000"
 preserveAspectRatio="xMidYMid meet">

<g transform="translate(0.000000,960.000000) scale(0.100000,-0.100000)"
fill="#fff" stroke="none">
<path d="M11185 9161 c-85 -40 -212 -170 -362 -371 -48 -63 -111 -149 -142
-190 -76 -100 -177 -199 -241 -234 -60 -32 -129 -38 -176 -13 -41 21 -107 95
-188 210 -104 148 -169 191 -252 168 -95 -26 -161 -105 -272 -320 -42 -80 -93
-172 -115 -205 -74 -110 -95 -184 -137 -491 -25 -179 -53 -265 -117 -360 -27
-38 -145 -169 -263 -290 -308 -315 -411 -456 -501 -682 l-9 -23 5160 0 5160 0
-63 103 c-102 164 -247 418 -352 612 -120 224 -136 245 -178 245 -41 0 -73
-29 -232 -205 -89 -98 -153 -182 -216 -282 -111 -174 -154 -224 -224 -259 -63
-30 -99 -28 -174 11 -111 58 -222 174 -454 479 -233 307 -278 348 -360 331
-47 -10 -88 -38 -196 -133 -133 -117 -183 -140 -255 -121 -56 15 -122 86 -181
193 -26 48 -96 203 -157 344 -137 322 -200 452 -279 571 -113 171 -286 326
-378 338 -113 15 -227 -116 -451 -522 -127 -231 -163 -271 -300 -337 -117 -56
-199 -122 -267 -213 -107 -144 -136 -153 -266 -78 -251 143 -351 235 -576 530
-125 166 -163 209 -210 239 -31 20 -76 50 -100 66 l-44 30 -76 -39 c-42 -21
-143 -76 -224 -122 -140 -79 -286 -141 -333 -141 -37 0 -69 35 -212 233 -218
302 -228 317 -278 423 -150 319 -162 340 -222 400 -65 65 -168 124 -216 124
-17 0 -49 -9 -71 -19z"/>
</g>
</svg>
