<?xml version="1.0" standalone="no"?>
<!DOCTYPE svg PUBLIC "-//W3C//DTD SVG 20010904//EN"
 "http://www.w3.org/TR/2001/REC-SVG-20010904/DTD/svg10.dtd">
<svg version="1.0" xmlns="http://www.w3.org/2000/svg"
 width="1280.000000pt" height="640.000000pt" viewBox="0 0 1280.000000 640.000000"
 preserveAspectRatio="xMidYMid meet">
<metadata>
Created by potrace 1.15, written by Peter Selinger 2001-2017
</metadata>
<g transform="translate(0.000000,640.000000) scale(0.100000,-0.100000)"
fill="#000000" stroke="none">
<path d="M5975 4716 c-27 -7 -99 -35 -160 -62 -111 -50 -112 -51 -243 -189
-75 -80 -224 -205 -272 -229 -33 -16 -58 -41 -93 -92 -82 -118 -175 -203 -296
-268 -39 -21 -80 -56 -125 -108 -36 -42 -79 -86 -95 -97 -39 -28 -336 -175
-386 -191 -36 -12 -281 -130 -424 -206 -47 -24 -64 -28 -135 -27 -44 1 -130 9
-190 18 -115 17 -119 17 -261 -17 -97 -22 -161 -42 -270 -83 -111 -42 -201
-64 -325 -80 -99 -13 -127 -22 -210 -62 -135 -65 -158 -72 -289 -83 -145 -13
-230 -28 -256 -44 -11 -7 -44 -20 -73 -30 -30 -9 -88 -39 -130 -65 -113 -71
-138 -78 -222 -63 -124 21 -189 16 -287 -22 -183 -72 -330 -124 -388 -136 -33
-8 -157 -46 -276 -85 -177 -59 -229 -81 -280 -117 -88 -62 -151 -97 -223 -125
l-61 -23 265 7 c146 4 294 6 330 5 70 -3 185 -28 290 -62 226 -74 287 -90 354
-90 103 0 478 57 550 84 39 15 97 26 160 30 113 8 152 24 184 72 36 56 75 66
233 65 131 -1 139 0 230 32 52 19 126 40 164 48 85 16 369 19 385 3 7 -7 0
-23 -25 -55 -19 -24 -35 -51 -35 -60 0 -11 26 -26 80 -48 66 -26 101 -33 212
-41 191 -14 350 -30 453 -46 271 -40 363 -57 485 -88 267 -69 331 -78 522 -73
95 3 190 10 210 16 51 16 115 66 160 126 49 65 105 96 260 145 70 22 131 46
135 54 4 7 20 21 36 31 48 31 133 8 242 -64 22 -15 68 -40 102 -55 35 -15 132
-60 215 -101 222 -106 320 -136 693 -210 267 -53 424 -90 580 -135 174 -50
276 -66 527 -81 230 -13 271 -10 387 36 82 32 147 51 416 126 117 33 125 33
327 35 113 1 269 5 345 9 228 13 442 8 514 -10 131 -34 309 -95 461 -158 261
-109 350 -130 367 -85 5 14 3 45 -5 78 -7 30 -10 58 -8 62 11 17 78 19 146 4
40 -9 136 -20 213 -26 187 -14 302 -34 410 -71 81 -28 99 -31 175 -27 89 5
190 36 370 111 168 71 241 80 515 64 87 -5 145 -5 154 1 23 16 4 42 -46 64
-141 60 -243 113 -312 161 -101 71 -129 85 -299 146 -78 28 -183 71 -232 96
-50 25 -125 59 -168 76 -42 17 -107 44 -143 60 -40 17 -113 36 -185 48 -65 11
-157 33 -204 49 -97 34 -237 57 -423 70 -125 10 -128 10 -200 53 -200 119
-439 225 -562 249 -33 6 -76 16 -96 21 -57 14 -146 10 -241 -11 -48 -10 -132
-22 -185 -26 -140 -9 -184 9 -307 127 -51 48 -153 133 -226 189 -142 106 -168
118 -310 140 -89 14 -100 21 -208 119 -115 105 -161 131 -239 131 -133 0 -304
56 -390 127 -27 22 -96 72 -155 111 -58 39 -109 76 -113 82 -4 6 -37 30 -74
55 -45 30 -83 66 -119 114 -50 68 -57 73 -170 127 -64 30 -157 72 -207 92 -49
20 -112 50 -140 68 -27 17 -93 53 -145 79 -52 26 -101 56 -108 66 -7 10 -29
21 -50 25 -20 3 -61 22 -90 40 -51 34 -55 35 -126 28 -69 -6 -76 -5 -148 30
-80 39 -111 42 -193 22z"/>
</g>
</svg>
