<?xml version="1.0" standalone="no"?>
<!DOCTYPE svg PUBLIC "-//W3C//DTD SVG 20010904//EN"
 "http://www.w3.org/TR/2001/REC-SVG-20010904/DTD/svg10.dtd">
<svg version="1.0" xmlns="http://www.w3.org/2000/svg"
 width="1920.000000pt" height="960.000000pt" viewBox="0 0 1920.000000 960.000000"
 preserveAspectRatio="xMidYMid meet">

<g transform="translate(0.000000,960.000000) scale(0.100000,-0.100000)"
fill="#000000" stroke="none">
<!--  <path d="M4864 8924 c-17 -8 -68 -45 -113 -82 -120 -97 -172 -132 -200 -132
-13 0 -81 24 -150 54 -240 103 -304 103 -334 -2 l-14 -47 -68 -5 c-85 -6 -83
-3 -154 -220 -74 -225 -102 -275 -178 -327 -37 -24 -85 -47 -117 -54 -31 -7
-64 -22 -75 -33 -26 -28 -45 -103 -75 -301 -50 -323 -91 -470 -164 -591 -27
-45 -71 -133 -97 -197 l-48 -117 -81 -43 c-62 -32 -104 -65 -181 -142 -98 -98
-163 -184 -279 -373 -81 -131 -148 -199 -269 -273 -284 -173 -350 -230 -470
-404 -81 -117 -109 -133 -209 -116 -38 6 -74 12 -79 14 -5 1 -76 -137 -158
-308 -213 -448 -316 -649 -378 -743 -74 -112 -211 -253 -358 -370 -66 -52
-127 -101 -135 -109 -12 -11 727 -13 4478 -13 3012 0 4491 3 4487 10 -10 17
-360 315 -525 447 -100 80 -185 140 -240 168 -101 51 -174 103 -333 239 -65
56 -137 113 -159 129 l-42 27 -26 -25 c-18 -17 -37 -25 -61 -25 -47 0 -137 27
-171 52 -37 26 -135 153 -238 308 -46 69 -142 204 -214 300 -254 340 -339 480
-462 757 -86 193 -112 241 -168 301 -48 53 -110 85 -191 102 -33 7 -71 22 -84
34 -29 26 -83 139 -150 315 -28 74 -62 154 -76 177 -70 119 -434 364 -678 455
-106 40 -80 -4 -277 454 -189 440 -274 604 -357 693 -35 37 -77 42 -129 16z"/>-->
<path d="M13561 5750 c-84 -30 -126 -63 -251 -191 l-115 -118 -89 -26 -90 -27
-125 -121 c-69 -66 -137 -131 -150 -145 -16 -16 -30 -22 -45 -17 -55 16 -162
17 -198 2 -55 -23 -335 -236 -398 -303 -31 -33 -85 -102 -120 -154 -82 -122
-227 -266 -360 -361 -61 -43 -174 -140 -267 -230 -184 -177 -218 -199 -314
-199 l-64 0 -85 -85 -85 -85 -71 0 -72 0 -35 -47 c-73 -102 -229 -391 -339
-628 -25 -55 -71 -133 -102 -172 -31 -39 -56 -74 -56 -77 0 -3 1967 -6 4370
-6 2404 0 4370 4 4370 8 0 5 -24 34 -54 64 -38 39 -86 72 -156 109 -141 74
-179 118 -275 315 -68 138 -84 164 -144 223 -37 36 -123 109 -191 161 -170
129 -198 156 -311 301 -148 191 -191 223 -501 371 -179 87 -187 95 -265 258
-25 52 -52 110 -62 128 -9 19 -51 72 -94 118 -75 80 -82 85 -160 111 -62 20
-104 27 -172 28 -102 2 -119 9 -217 84 -35 27 -83 58 -106 70 -23 12 -89 57
-146 101 -121 92 -161 106 -269 97 -145 -13 -156 -19 -384 -223 -218 -194
-209 -187 -350 -224 -28 -7 -68 -33 -123 -80 -44 -39 -87 -70 -95 -70 -21 0
-42 36 -71 125 -15 44 -37 95 -48 112 -23 36 -107 84 -222 127 -128 48 -270
145 -328 225 -18 25 -64 102 -101 171 -96 179 -142 234 -230 276 -64 30 -157
32 -234 4z"/>
<!-- <path d="M6272 3285 c-65 -77 -137 -135 -216 -171 -88 -40 -153 -32 -285 35
-55 28 -109 51 -119 51 -37 0 -523 -339 -739 -517 -56 -45 -110 -83 -120 -83
-29 0 -113 53 -180 114 -33 31 -67 56 -73 56 -31 0 -223 -136 -608 -433 -555
-426 -724 -547 -768 -547 -15 0 -38 18 -70 55 -26 30 -52 55 -57 55 -5 0 -53
-32 -106 -71 -53 -40 -111 -78 -128 -85 -40 -17 -93 -7 -196 36 -119 51 -130
51 -222 -16 -44 -31 -129 -96 -190 -144 -156 -124 -266 -197 -372 -247 -151
-72 -166 -70 -283 32 -95 83 -123 90 -205 54 -54 -24 -101 -23 -253 5 -114 21
-144 13 -304 -87 -167 -105 -332 -199 -470 -268 l-108 -54 0 -437 0 -438 9410
0 9410 0 0 250 0 249 -47 28 c-27 15 -88 65 -136 111 -167 158 -306 240 -521
307 l-117 37 -59 -26 c-115 -52 -242 -52 -566 -1 -172 27 -338 32 -424 14 -53
-11 -90 -35 -251 -158 -102 -77 -209 -132 -326 -167 -74 -22 -108 -26 -213
-27 -218 0 -345 41 -780 253 -168 82 -358 170 -424 195 -65 25 -137 57 -160
70 -23 13 -118 104 -211 201 -191 200 -231 227 -286 199 -17 -9 -83 -69 -147
-134 -178 -178 -255 -207 -431 -162 -133 33 -178 68 -271 210 l-16 23 -69 -42
c-99 -60 -363 -190 -388 -190 -11 0 -81 20 -156 44 -75 25 -165 47 -201 51
-87 9 -175 35 -360 107 -286 113 -579 277 -768 430 -49 39 -81 58 -95 56 -11
-2 -36 -23 -54 -48 -56 -75 -71 -90 -90 -90 -10 0 -56 41 -103 90 -47 50 -92
90 -101 90 -9 0 -40 -28 -69 -61 -66 -75 -124 -119 -160 -119 -15 0 -64 23
-111 52 -126 78 -228 128 -261 128 -23 0 -44 -15 -101 -73 -90 -92 -144 -131
-338 -248 -273 -163 -368 -202 -494 -202 -95 0 -160 25 -330 127 -163 97 -257
146 -282 146 -10 0 -38 -13 -62 -29 l-45 -30 -63 59 c-129 121 -453 310 -532
310 -20 0 -77 -9 -127 -20 -49 -11 -99 -20 -111 -20 -15 0 -53 28 -104 75
-130 120 -213 151 -463 175 -151 15 -248 39 -339 87 -65 33 -108 74 -427 396
-340 344 -453 447 -488 447 -10 0 -41 -29 -70 -65z"/> -->
</g>
</svg>
